<svg xmlns="http://www.w3.org/2000/svg" viewBox="0 0 259.24 98.08"><defs><style>.cls-1{fill:#cecdcc;}.cls-2{fill:#b5b4b4;}.cls-3{fill:#e9e9e9;}.cls-4{fill:#a8c635;}.cls-5{fill:#24356b;}.cls-6{fill:#fff;}</style></defs><g id="Capa_2" data-name="Capa 2"><g id="Capa_1-2" data-name="Capa 1"><path class="cls-1" d="M4.7,49.53l6.8-5.61L29.31,85.31,4.19,54.89a3.82,3.82,0,0,1,.51-5.36"/><path class="cls-2" d="M.44,62.78l3.19-4.56,17.79,22.2L1,66.13a2.41,2.41,0,0,1-.58-3.35"/><path class="cls-3" d="M59.89,79.49A22.44,22.44,0,0,1,51,70.61a25.94,25.94,0,0,1-3.13-12.74A28.21,28.21,0,0,1,51.2,44a23.54,23.54,0,0,1,8.74-9.16c.54-.32,1.1-.61,1.66-.88L57.29,23.29a3.89,3.89,0,0,0-5.15-1.86L16.22,36a3.88,3.88,0,0,0-2.42,4.91l1.3,3.21,18.11,44.8a3.9,3.9,0,0,0,5.16,1.86l24.42-9.88A23.28,23.28,0,0,1,59.89,79.49Z"/><path class="cls-4" d="M72.09,19.06a39.51,39.51,0,1,0,39.52,39.51A39.51,39.51,0,0,0,72.09,19.06Zm21,40.56A5.85,5.85,0,0,1,89.2,61H59.12a13.61,13.61,0,0,0,4.93,8.15,13.94,13.94,0,0,0,8.8,3,19.72,19.72,0,0,0,5.82-.68A15.24,15.24,0,0,0,82,70.06l1.68-1a7,7,0,0,1,3.09-.81A4.43,4.43,0,0,1,90,69.56a5.09,5.09,0,0,1,.92,1.25,4.33,4.33,0,0,1,.67,2.33A5.74,5.74,0,0,1,89,77.65a22,22,0,0,1-6.9,3.59,28.45,28.45,0,0,1-22.23-1.75A22.44,22.44,0,0,1,51,70.61a25.94,25.94,0,0,1-3.13-12.74A28.21,28.21,0,0,1,51.2,44a23.54,23.54,0,0,1,8.74-9.16,22.67,22.67,0,0,1,11.6-3.17A21.54,21.54,0,0,1,83,35a24.89,24.89,0,0,1,8.6,8.93A24,24,0,0,1,94.82,56,4.71,4.71,0,0,1,93.07,59.62Z"/><path class="cls-4" d="M79.21,44.5a11.81,11.81,0,0,0-7.63-2.72q-10.52,0-12.43,9.89H82.93V51a9.39,9.39,0,0,0-3.72-6.54"/><path class="cls-5" d="M151.26,15.1a5.27,5.27,0,0,0-3.94,1.6,5.48,5.48,0,0,0-1.55,4v18a21.79,21.79,0,0,0-6.51-4.07A21.14,21.14,0,0,0,131,33a20.34,20.34,0,0,0-11.22,3.25,22.54,22.54,0,0,0-8,9.06,28.85,28.85,0,0,0-2.92,13.14,28.12,28.12,0,0,0,3,13.1,22.88,22.88,0,0,0,8.1,9,20.91,20.91,0,0,0,11.45,3.25,19.88,19.88,0,0,0,14.38-6.42,5.77,5.77,0,0,0,1.6,4,5.65,5.65,0,0,0,7.83,0,5.52,5.52,0,0,0,1.55-4V20.68a5.47,5.47,0,0,0-1.55-4,5.34,5.34,0,0,0-3.94-1.56m-8.79,54.25a12.21,12.21,0,0,1-9.71,4.36,12.06,12.06,0,0,1-9.66-4.36,16.26,16.26,0,0,1-3.71-10.94,16.36,16.36,0,0,1,3.76-11,12.82,12.82,0,0,1,19.32,0,16.36,16.36,0,0,1,3.76,11,16.14,16.14,0,0,1-3.76,10.94"/><path class="cls-5" d="M195.58,36.21a26.11,26.11,0,0,0-25.23,0,23.69,23.69,0,0,0-9,9.06,26.26,26.26,0,0,0-3.29,13.14,26.24,26.24,0,0,0,3.29,13.14,23.31,23.31,0,0,0,9,9,26.39,26.39,0,0,0,25.23,0,23.27,23.27,0,0,0,9-9,26.14,26.14,0,0,0,3.3-13.14,26.17,26.17,0,0,0-3.3-13.14,23.65,23.65,0,0,0-9-9.06M195,66.38a13.84,13.84,0,0,1-5,5.4,13.66,13.66,0,0,1-14,0,13.76,13.76,0,0,1-5-5.4,16.44,16.44,0,0,1-1.88-8,16.68,16.68,0,0,1,1.88-8A13.71,13.71,0,0,1,176,45a13.72,13.72,0,0,1,14,0,13.78,13.78,0,0,1,5,5.45,16.91,16.91,0,0,1,1.87,8,16.66,16.66,0,0,1-1.87,8"/><path class="cls-5" d="M250.15,71.69a4.62,4.62,0,0,0-3.61-1.47,5,5,0,0,0-2,.37,10,10,0,0,0-1.79,1.06,13.07,13.07,0,0,1-1.51,1,15.58,15.58,0,0,1-6.68,1.1,13,13,0,0,1-10.08-4.36,15.68,15.68,0,0,1-3.93-10.94c0-4.58,1.29-8.28,3.89-11.13S230.6,43,235.18,43a15.2,15.2,0,0,1,2.88.36,11.75,11.75,0,0,1,2.71.83,13.58,13.58,0,0,1,1.69,1.14,8.25,8.25,0,0,0,1.78,1.1,5.78,5.78,0,0,0,2.38.41,3.77,3.77,0,0,0,3.12-1.51,5.47,5.47,0,0,0,1.19-3.52q0-4-4.76-6.46T233.62,33a24,24,0,0,0-12.46,3.25,22.56,22.56,0,0,0-8.55,9,27.64,27.64,0,0,0-3.07,13.19,28.42,28.42,0,0,0,2.93,13,22.21,22.21,0,0,0,8.29,9.11,23.17,23.17,0,0,0,12.4,3.3,33.89,33.89,0,0,0,9-1.15,20,20,0,0,0,6.78-3.06c1.7-1.29,2.56-2.66,2.56-4.13a5.41,5.41,0,0,0-1.33-3.75"/><path class="cls-4" d="M101.93,1.82C95.83,0,79.74-3.4,77.76,9.08a8.59,8.59,0,0,0,3.72,8.53c10.51,7,18.91-7.15,21.74-12.83a2.1,2.1,0,0,0-1.29-3"/><path class="cls-5" d="M112.25,89.35v2.18h2.67a.8.8,0,0,1,.54.2.71.71,0,0,1,.21.53.66.66,0,0,1-.21.48.76.76,0,0,1-.54.21h-2.67v2.88a.68.68,0,0,1-.24.53.73.73,0,0,1-.53.22.8.8,0,0,1-.56-.2.74.74,0,0,1-.22-.55V88.69a.75.75,0,0,1,.76-.76h4a.77.77,0,0,1,.54.2.69.69,0,0,1,.21.53.62.62,0,0,1-.21.48.73.73,0,0,1-.54.21Z"/><path class="cls-5" d="M123.16,90.05a.77.77,0,0,1,.21.55v5.23a.72.72,0,0,1-.21.53.69.69,0,0,1-.53.22.74.74,0,0,1-.53-.2.84.84,0,0,1-.21-.54,2.61,2.61,0,0,1-.84.61,2.47,2.47,0,0,1-1.1.26,2.86,2.86,0,0,1-1.55-.44,3.11,3.11,0,0,1-1.09-1.21,3.85,3.85,0,0,1-.4-1.78,3.78,3.78,0,0,1,.39-1.77,3.16,3.16,0,0,1,1.08-1.23,2.79,2.79,0,0,1,1.51-.43,2.94,2.94,0,0,1,1.12.21,3.21,3.21,0,0,1,.88.55h0a.75.75,0,0,1,.21-.54.71.71,0,0,1,.53-.21.72.72,0,0,1,.53.2m-1.72,4.71a2.4,2.4,0,0,0,0-3,1.74,1.74,0,0,0-2.61,0,2.23,2.23,0,0,0-.5,1.48,2.16,2.16,0,0,0,.5,1.48,1.62,1.62,0,0,0,1.3.59,1.64,1.64,0,0,0,1.31-.59"/><path class="cls-5" d="M129.55,90.17a1,1,0,0,1,.64.88.72.72,0,0,1-.16.47.48.48,0,0,1-.42.2,1,1,0,0,1-.32,0,1.58,1.58,0,0,1-.24-.15l-.22-.16a2.45,2.45,0,0,0-.37-.11,2.43,2.43,0,0,0-.39,0,1.87,1.87,0,0,0-1.45.58,2.36,2.36,0,0,0,0,3,1.78,1.78,0,0,0,1.37.59,2.25,2.25,0,0,0,.9-.15l.2-.13.24-.15a.73.73,0,0,1,.27,0,.63.63,0,0,1,.49.19.74.74,0,0,1,.18.51.71.71,0,0,1-.35.55,2.75,2.75,0,0,1-.91.42,4.72,4.72,0,0,1-1.21.16A3,3,0,0,1,125,95a3.88,3.88,0,0,1-.39-1.75A3.71,3.71,0,0,1,125,91.5a3.1,3.1,0,0,1,1.16-1.22,3.23,3.23,0,0,1,1.68-.43,3.72,3.72,0,0,1,1.69.32"/><path class="cls-5" d="M134.85,95.35a.68.68,0,0,1,.14.44.66.66,0,0,1-.36.56,1.57,1.57,0,0,1-.83.23,2.43,2.43,0,0,1-1.29-.33c-.35-.21-.52-.68-.52-1.39V91.45h-.57a.66.66,0,0,1-.5-.2.66.66,0,0,1-.19-.49.65.65,0,0,1,.19-.48.74.74,0,0,1,.5-.19H132V89.3a.72.72,0,0,1,.75-.75.7.7,0,0,1,.52.21.76.76,0,0,1,.21.54v.79h.88a.7.7,0,0,1,.5.2.72.72,0,0,1,.19.5.68.68,0,0,1-.19.47.69.69,0,0,1-.5.19h-.88V94.8a.45.45,0,0,0,.14.38.53.53,0,0,0,.37.11,1.09,1.09,0,0,0,.27,0,.77.77,0,0,1,.28-.07.43.43,0,0,1,.32.17"/><path class="cls-5" d="M141.84,90.18a.82.82,0,0,1,.21.55v3.14a2.82,2.82,0,0,1-.74,2.08,3.25,3.25,0,0,1-4.18,0,2.85,2.85,0,0,1-.73-2.08V90.73a.77.77,0,0,1,.21-.55.74.74,0,0,1,.53-.21.69.69,0,0,1,.53.21.73.73,0,0,1,.21.55v3.14a1.62,1.62,0,0,0,.33,1.11,1.33,1.33,0,0,0,1,.37,1.31,1.31,0,0,0,1-.37,1.57,1.57,0,0,0,.34-1.11V90.73a.77.77,0,0,1,.21-.55.7.7,0,0,1,.52-.21.73.73,0,0,1,.54.21"/><path class="cls-5" d="M147.72,90.05a.68.68,0,0,1,.25.5.74.74,0,0,1-.2.57.64.64,0,0,1-.47.19,1.18,1.18,0,0,1-.42-.08l-.16,0a1.33,1.33,0,0,0-.28,0,1.12,1.12,0,0,0-.62.19,1.49,1.49,0,0,0-.49.6,2.16,2.16,0,0,0-.19,1v2.93a.76.76,0,0,1-.2.53.73.73,0,0,1-.54.22.67.67,0,0,1-.53-.22.69.69,0,0,1-.21-.53V90.72a.72.72,0,0,1,.21-.54.69.69,0,0,1,.53-.21.76.76,0,0,1,.54.21.8.8,0,0,1,.2.54v.16a1.88,1.88,0,0,1,.81-.77,2.51,2.51,0,0,1,1.14-.26,1,1,0,0,1,.63.2"/><path class="cls-5" d="M154.76,90.05a.77.77,0,0,1,.21.55v5.23a.72.72,0,0,1-.21.53.72.72,0,0,1-.54.22.73.73,0,0,1-.52-.2.8.8,0,0,1-.22-.54,2.45,2.45,0,0,1-.83.61,2.51,2.51,0,0,1-1.11.26,2.82,2.82,0,0,1-1.54-.44,3.11,3.11,0,0,1-1.09-1.21,3.74,3.74,0,0,1-.41-1.78,3.78,3.78,0,0,1,.4-1.77A3,3,0,0,1,150,90.28a2.76,2.76,0,0,1,1.51-.43,3,3,0,0,1,1.12.21,3.15,3.15,0,0,1,.87.55h0a.72.72,0,0,1,.22-.54.69.69,0,0,1,.52-.21.74.74,0,0,1,.54.2M153,94.76a2.4,2.4,0,0,0,0-3,1.74,1.74,0,0,0-2.61,0,2.4,2.4,0,0,0,0,3,1.62,1.62,0,0,0,1.3.59,1.65,1.65,0,0,0,1.31-.59"/><path class="cls-5" d="M161.15,90.17a1,1,0,0,1,.64.88.68.68,0,0,1-.17.47.47.47,0,0,1-.41.2.93.93,0,0,1-.32,0,1.58,1.58,0,0,1-.24-.15l-.23-.16a2.45,2.45,0,0,0-.37-.11,2.33,2.33,0,0,0-.38,0,1.9,1.9,0,0,0-1.46.58,2.12,2.12,0,0,0-.52,1.5,2.08,2.08,0,0,0,.53,1.48,1.76,1.76,0,0,0,1.36.59,2.25,2.25,0,0,0,.9-.15l.2-.13.24-.15a.79.79,0,0,1,.28,0,.64.64,0,0,1,.49.19.78.78,0,0,1,.17.51.69.69,0,0,1-.34.55,2.85,2.85,0,0,1-.91.42,4.85,4.85,0,0,1-1.22.16,3.07,3.07,0,0,1-1.67-.45A3,3,0,0,1,156.6,95a3.88,3.88,0,0,1-.4-1.75,3.71,3.71,0,0,1,.42-1.78,3.07,3.07,0,0,1,1.15-1.22,3.26,3.26,0,0,1,1.68-.43,3.76,3.76,0,0,1,1.7.32"/><path class="cls-5" d="M163,89a.56.56,0,0,1-.17-.48v-.24a.56.56,0,0,1,.18-.48,1,1,0,0,1,.6-.14,1,1,0,0,1,.6.14.56.56,0,0,1,.18.48v.24a.58.58,0,0,1-.19.49,1.06,1.06,0,0,1-.6.13A1,1,0,0,1,163,89m1.14,7.33a.71.71,0,0,1-.53.22.7.7,0,0,1-.54-.22.77.77,0,0,1-.21-.53V90.72a.81.81,0,0,1,.21-.54.73.73,0,0,1,.54-.21.74.74,0,0,1,.53.21.76.76,0,0,1,.2.54v5.11a.72.72,0,0,1-.2.53"/><path class="cls-5" d="M171.77,95.06a3.15,3.15,0,0,1-1.22,1.21,3.52,3.52,0,0,1-3.41,0,3.13,3.13,0,0,1-1.21-1.21,3.61,3.61,0,0,1-.44-1.78,3.57,3.57,0,0,1,.44-1.77,3.25,3.25,0,0,1,1.21-1.23,3.6,3.6,0,0,1,3.41,0,3.27,3.27,0,0,1,1.22,1.23,3.57,3.57,0,0,1,.44,1.77,3.61,3.61,0,0,1-.44,1.78m-1.3-2.86a1.78,1.78,0,0,0-.68-.73,1.77,1.77,0,0,0-1.88,0,1.87,1.87,0,0,0-.69.73,2.39,2.39,0,0,0-.25,1.08,2.36,2.36,0,0,0,.25,1.08,1.94,1.94,0,0,0,.69.73,1.83,1.83,0,0,0,1.88,0,1.84,1.84,0,0,0,.68-.73,2.24,2.24,0,0,0,.26-1.08,2.27,2.27,0,0,0-.26-1.08m-1.82-2.76a.33.33,0,0,1-.13-.3.43.43,0,0,1,.07-.23l.72-1.27a1.14,1.14,0,0,1,.3-.35.54.54,0,0,1,.38-.14.65.65,0,0,1,.5.18.59.59,0,0,1,.15.44.87.87,0,0,1-.23.53l-.94,1a.75.75,0,0,1-.56.21.45.45,0,0,1-.26-.11"/><path class="cls-5" d="M178.73,90.59a3.82,3.82,0,0,1,.48,2.07v3.17a.73.73,0,0,1-.22.53.67.67,0,0,1-.53.22.69.69,0,0,1-.53-.22.77.77,0,0,1-.21-.53V92.66a1.73,1.73,0,0,0-.28-1.06,1.14,1.14,0,0,0-1-.4,1.49,1.49,0,0,0-1.12.42,1.43,1.43,0,0,0-.41,1v3.17a.72.72,0,0,1-.21.53.69.69,0,0,1-.53.22.68.68,0,0,1-.53-.22.73.73,0,0,1-.22-.53V90.72a.77.77,0,0,1,.22-.54.71.71,0,0,1,.53-.21.72.72,0,0,1,.53.21.76.76,0,0,1,.21.54v.22a2.84,2.84,0,0,1,.87-.77,2.2,2.2,0,0,1,1.18-.32,1.93,1.93,0,0,1,1.75.74"/><path class="cls-5" d="M189.83,95.38a.65.65,0,0,1,.21.5.66.66,0,0,1-.21.51.78.78,0,0,1-.54.19h-4.14a.75.75,0,0,1-.75-.75V88.68a.75.75,0,0,1,.75-.75h4.14a.78.78,0,0,1,.54.2.69.69,0,0,1,.21.53.63.63,0,0,1-.2.5.77.77,0,0,1-.55.19h-3.35v2.1h2.8a.72.72,0,0,1,.53.21.66.66,0,0,1,.22.52.63.63,0,0,1-.21.5.76.76,0,0,1-.54.19h-2.8v2.29h3.35a.72.72,0,0,1,.54.22"/><path class="cls-5" d="M192.74,96.36a.72.72,0,0,1-.55.22.67.67,0,0,1-.51-.22.72.72,0,0,1-.21-.53V88.19a.75.75,0,0,1,.21-.54.77.77,0,0,1,.54-.22.71.71,0,0,1,.52.22.75.75,0,0,1,.21.54v7.64a.72.72,0,0,1-.21.53"/><path class="cls-5" d="M200.25,93.6a.72.72,0,0,1-.51.19h-4.08a1.84,1.84,0,0,0,.68,1.14,1.87,1.87,0,0,0,1.2.42,2.71,2.71,0,0,0,.79-.1,2,2,0,0,0,.45-.19l.23-.15a1,1,0,0,1,.42-.11.58.58,0,0,1,.44.19.57.57,0,0,1,.19.43.76.76,0,0,1-.35.6,2.79,2.79,0,0,1-.93.49,3.6,3.6,0,0,1-1.17.2,3.54,3.54,0,0,1-1.81-.44,2.9,2.9,0,0,1-1.19-1.19,3.49,3.49,0,0,1-.42-1.71,3.77,3.77,0,0,1,.44-1.87,3.25,3.25,0,0,1,1.18-1.23,3,3,0,0,1,1.55-.42,2.84,2.84,0,0,1,1.54.44,3.34,3.34,0,0,1,1.16,1.2,3.21,3.21,0,0,1,.44,1.63.61.61,0,0,1-.25.48m-4.57-1h3.23v-.08a1.27,1.27,0,0,0-.51-.9,1.63,1.63,0,0,0-1-.37,1.52,1.52,0,0,0-1.68,1.35"/><path class="cls-5" d="M206.3,90.17a1,1,0,0,1,.64.88.72.72,0,0,1-.16.47.49.49,0,0,1-.42.2,1,1,0,0,1-.32,0,1.58,1.58,0,0,1-.24-.15,1.88,1.88,0,0,0-.23-.16,2,2,0,0,0-.36-.11,2.3,2.3,0,0,0-.39,0,1.89,1.89,0,0,0-1.45.58,2.13,2.13,0,0,0-.53,1.5,2.09,2.09,0,0,0,.54,1.48,1.72,1.72,0,0,0,1.35.59,2.27,2.27,0,0,0,.91-.15l.2-.13a1.58,1.58,0,0,1,.24-.15.73.73,0,0,1,.27,0,.64.64,0,0,1,.49.19.74.74,0,0,1,.18.51.68.68,0,0,1-.35.55,2.66,2.66,0,0,1-.91.42,4.78,4.78,0,0,1-1.21.16,3.07,3.07,0,0,1-1.67-.45A3,3,0,0,1,201.76,95a3.76,3.76,0,0,1-.4-1.75,3.83,3.83,0,0,1,.41-1.78,3.1,3.1,0,0,1,1.16-1.22,3.23,3.23,0,0,1,1.68-.43,3.72,3.72,0,0,1,1.69.32"/><path class="cls-5" d="M211.6,95.35a.68.68,0,0,1,.14.44.65.65,0,0,1-.37.56,1.51,1.51,0,0,1-.82.23,2.38,2.38,0,0,1-1.29-.33,1.54,1.54,0,0,1-.52-1.39V91.45h-.57a.66.66,0,0,1-.5-.2.66.66,0,0,1-.19-.49.65.65,0,0,1,.19-.48.74.74,0,0,1,.5-.19h.57V89.3a.76.76,0,0,1,.21-.54.73.73,0,0,1,.54-.21.74.74,0,0,1,.53.21.8.8,0,0,1,.2.54v.79h.88a.66.66,0,0,1,.49.2.69.69,0,0,1,.2.5.67.67,0,0,1-.69.66h-.88V94.8a.48.48,0,0,0,.14.38.53.53,0,0,0,.37.11,1.09,1.09,0,0,0,.27,0,.77.77,0,0,1,.28-.07.43.43,0,0,1,.32.17"/><path class="cls-5" d="M217.21,90.05a.64.64,0,0,1,.25.5.78.78,0,0,1-.19.57.66.66,0,0,1-.47.19,1.2,1.2,0,0,1-.43-.08l-.16,0a1.2,1.2,0,0,0-.28,0,1.09,1.09,0,0,0-.61.19,1.59,1.59,0,0,0-.5.6,2.31,2.31,0,0,0-.19,1v2.93a.72.72,0,0,1-.2.53.73.73,0,0,1-.53.22.7.7,0,0,1-.54-.22.72.72,0,0,1-.21-.53V90.72a.76.76,0,0,1,.21-.54.73.73,0,0,1,.54-.21.7.7,0,0,1,.73.75v.16a1.85,1.85,0,0,1,.82-.77,2.51,2.51,0,0,1,1.14-.26.92.92,0,0,1,.62.2"/><path class="cls-5" d="M224.43,95.06a3.15,3.15,0,0,1-1.22,1.21,3.45,3.45,0,0,1-1.7.44,3.4,3.4,0,0,1-1.71-.44,3.06,3.06,0,0,1-1.21-1.21,3.51,3.51,0,0,1-.45-1.78,3.48,3.48,0,0,1,.45-1.77,3.18,3.18,0,0,1,1.21-1.23,3.39,3.39,0,0,1,1.71-.43,3.44,3.44,0,0,1,1.7.43,3.27,3.27,0,0,1,1.22,1.23,3.57,3.57,0,0,1,.44,1.77,3.61,3.61,0,0,1-.44,1.78m-1.29-2.86a1.94,1.94,0,0,0-.69-.73,1.79,1.79,0,0,0-1.89,0,1.84,1.84,0,0,0-.68.73,2.27,2.27,0,0,0-.26,1.08,2.24,2.24,0,0,0,.26,1.08,1.91,1.91,0,0,0,.68.73,1.85,1.85,0,0,0,1.89,0,2,2,0,0,0,.69-.73,2.36,2.36,0,0,0,.25-1.08,2.39,2.39,0,0,0-.25-1.08m-1.84-2.76a.35.35,0,0,1-.13-.3.46.46,0,0,1,.08-.23l.71-1.27a1.29,1.29,0,0,1,.3-.35.59.59,0,0,1,.39-.14.68.68,0,0,1,.5.18.59.59,0,0,1,.15.44,1,1,0,0,1-.24.53l-.94,1a.71.71,0,0,1-.55.21.5.5,0,0,1-.27-.11"/><path class="cls-5" d="M231.38,90.59a3.82,3.82,0,0,1,.49,2.07v3.17a.72.72,0,0,1-.21.53.7.7,0,0,1-.54.22.66.66,0,0,1-.52-.22.69.69,0,0,1-.22-.53V92.66a1.73,1.73,0,0,0-.28-1.06,1.13,1.13,0,0,0-1-.4,1.54,1.54,0,0,0-1.14.42,1.43,1.43,0,0,0-.4,1v3.17a.72.72,0,0,1-.21.53.74.74,0,0,1-1.27-.53V90.72a.72.72,0,0,1,.21-.54.77.77,0,0,1,1.06,0,.76.76,0,0,1,.21.54v.22a2.84,2.84,0,0,1,.87-.77,2.2,2.2,0,0,1,1.18-.32,1.9,1.9,0,0,1,1.74.74"/><path class="cls-5" d="M233.52,89a.59.59,0,0,1-.17-.48v-.24a.59.59,0,0,1,.18-.48,1,1,0,0,1,.6-.14,1,1,0,0,1,.6.14.56.56,0,0,1,.17.48v.24a.57.57,0,0,1-.17.49,1.15,1.15,0,0,1-.61.13,1,1,0,0,1-.6-.14m1.14,7.33a.69.69,0,0,1-.53.22.72.72,0,0,1-.54-.22.72.72,0,0,1-.21-.53V90.72a.76.76,0,0,1,.21-.54.75.75,0,0,1,.54-.21.72.72,0,0,1,.53.21.76.76,0,0,1,.21.54v5.11a.72.72,0,0,1-.21.53"/><path class="cls-5" d="M241,90.17a1,1,0,0,1,.65.88.78.78,0,0,1-.16.47.5.5,0,0,1-.42.2,1,1,0,0,1-.33,0,1.58,1.58,0,0,1-.24-.15l-.22-.16a2.3,2.3,0,0,0-.38-.11,2.09,2.09,0,0,0-.38,0,1.87,1.87,0,0,0-1.45.58,2.36,2.36,0,0,0,0,3,1.76,1.76,0,0,0,1.37.59,2.25,2.25,0,0,0,.9-.15l.2-.13a1.58,1.58,0,0,1,.24-.15.73.73,0,0,1,.27,0,.63.63,0,0,1,.49.19.74.74,0,0,1,.18.51.68.68,0,0,1-.35.55,2.66,2.66,0,0,1-.91.42,4.73,4.73,0,0,1-1.22.16A3,3,0,0,1,236.41,95a3.88,3.88,0,0,1-.39-1.75,3.71,3.71,0,0,1,.41-1.78,3.17,3.17,0,0,1,1.16-1.22,3.23,3.23,0,0,1,1.68-.43,3.69,3.69,0,0,1,1.69.32"/><path class="cls-5" d="M248.64,90.05a.77.77,0,0,1,.21.55v5.23a.72.72,0,0,1-.21.53.69.69,0,0,1-.53.22.74.74,0,0,1-.53-.2.91.91,0,0,1-.22-.54,2.45,2.45,0,0,1-.83.61,2.5,2.5,0,0,1-1.1.26,2.83,2.83,0,0,1-1.55-.44,3.11,3.11,0,0,1-1.09-1.21,3.73,3.73,0,0,1-.4-1.78,3.78,3.78,0,0,1,.39-1.77,3,3,0,0,1,1.08-1.23,2.76,2.76,0,0,1,1.51-.43,3,3,0,0,1,1.12.21,2.88,2.88,0,0,1,.87.55h0a.76.76,0,0,1,.22-.54.69.69,0,0,1,.53-.21.72.72,0,0,1,.53.2m-1.72,4.71a2.4,2.4,0,0,0,0-3,1.74,1.74,0,0,0-2.61,0,2.4,2.4,0,0,0,0,3,1.62,1.62,0,0,0,1.3.59,1.65,1.65,0,0,0,1.31-.59"/><path class="cls-5" d="M254.37,25.77a4.86,4.86,0,1,0,4.87,4.86,4.87,4.87,0,0,0-4.87-4.86m0,8.88a4,4,0,1,1,4-4,4,4,0,0,1-4,4"/><path class="cls-5" d="M256.18,31.58a1.47,1.47,0,0,0-.46-.77,1.46,1.46,0,0,0,.75-1.29c0-.6-.3-1.61-2.28-1.61a11.7,11.7,0,0,0-1.52.11l-.23,0v5.31h1.14V31.23h.67a.78.78,0,0,1,.85.72,4.77,4.77,0,0,0,.41,1.28l.07.13h1.31l-.26-.41a7.24,7.24,0,0,1-.45-1.37m-.87-2c0,.57-.68.63-1,.63h-.76V29a5.73,5.73,0,0,1,.62,0c1.11,0,1.11.49,1.11.65"/><path class="cls-6" d="M91.6,43.88A24.89,24.89,0,0,0,83,35a21.54,21.54,0,0,0-11.46-3.31,22.67,22.67,0,0,0-11.6,3.17A23.54,23.54,0,0,0,51.2,44a28.21,28.21,0,0,0-3.32,13.9A25.94,25.94,0,0,0,51,70.61a22.44,22.44,0,0,0,8.88,8.88,28.45,28.45,0,0,0,22.23,1.75A22,22,0,0,0,89,77.65a5.74,5.74,0,0,0,2.58-4.51,4.33,4.33,0,0,0-.67-2.33A5.09,5.09,0,0,0,90,69.56a4.43,4.43,0,0,0-3.26-1.36,7,7,0,0,0-3.09.81l-1.68,1a15.24,15.24,0,0,1-3.31,1.45,19.72,19.72,0,0,1-5.82.68,13.94,13.94,0,0,1-8.8-3A13.61,13.61,0,0,1,59.12,61H89.2a5.85,5.85,0,0,0,3.87-1.38A4.71,4.71,0,0,0,94.82,56,24,24,0,0,0,91.6,43.88Zm-8.67,7.79H59.15q1.91-9.89,12.43-9.89a11.81,11.81,0,0,1,7.63,2.72A9.39,9.39,0,0,1,82.93,51Z"/></g></g></svg>