<svg xmlns="http://www.w3.org/2000/svg" viewBox="0 0 501.16 96.58"><defs><style>.cls-1{fill:#2797d2;}.cls-2{fill:#24356b;}.cls-3{fill:#9b9b9a;}</style></defs><g id="Capa_2" data-name="Capa 2"><g id="Capa_1-2" data-name="Capa 1"><path class="cls-1" d="M114,49.31a21.7,21.7,0,0,0-5.73-6.44,33.73,33.73,0,0,0-7.8-4.33c-.76-.31-1.52-.6-2.3-.89a1.22,1.22,0,0,0-1.61,1.42,17.8,17.8,0,0,1-.89,11.44,1.24,1.24,0,0,0,.57,1.59l.25.13a13.42,13.42,0,0,1,4.12,3.11A5.5,5.5,0,0,1,101.89,59a8.71,8.71,0,0,1-1.42,5,13.06,13.06,0,0,1-3.94,3.78A19.67,19.67,0,0,1,91,70.17a25.44,25.44,0,0,1-6.07.77,18.47,18.47,0,0,1-3.9-.52,30.42,30.42,0,0,1-5-1.65,34.61,34.61,0,0,1-5.3-2.83l-.13-.09a1.19,1.19,0,0,1-.53-1V59.68a2.06,2.06,0,0,0-1.21-1.86,14.11,14.11,0,0,0-1.71-.67,14.79,14.79,0,0,0-4.53-.71h-.63A23.28,23.28,0,0,0,57,57.56a1.83,1.83,0,0,0-1.23,1.72v7a1.22,1.22,0,0,1-.62,1.06c-.48.26-1,.52-1.67.79a25.92,25.92,0,0,1-3.16,1.06,32.7,32.7,0,0,1-3.78.78,26.31,26.31,0,0,1-4.08.31A25.9,25.9,0,0,1,32,68.09a27.31,27.31,0,0,1-8.58-5.88,28.11,28.11,0,0,1-5.82-8.72,26.93,26.93,0,0,1-2.15-10.71A28.19,28.19,0,0,1,23.1,23.43a26.32,26.32,0,0,1,19.51-8.27,28.65,28.65,0,0,1,9,1.45,31.75,31.75,0,0,1,3.92,1.58,1.2,1.2,0,0,1,.67,1.32,23.84,23.84,0,0,0-.47,4.75c0,.55,0,1.08.06,1.61a1.88,1.88,0,0,0,.8,1.3l.56.33a14.77,14.77,0,0,0,7.24,1.9l.92,0h0a16.62,16.62,0,0,0,1.71-.21,12.4,12.4,0,0,0,2.78-.77,2,2,0,0,0,1.16-2c-.1-.85-.2-1.88-.2-2.43a8.14,8.14,0,0,1,.74-3.31,8.36,8.36,0,0,1,2.29-3,12.76,12.76,0,0,1,4.24-2.26,20.78,20.78,0,0,1,6.48-.89,16.58,16.58,0,0,1,5.84,1A33.14,33.14,0,0,1,95.56,18a30.22,30.22,0,0,1,3.86,2.61c1.08.87,1.88,1.48,2.44,1.86,5.72,5.72,15.46-4.45,10.07-10a29.6,29.6,0,0,0-5.51-4.94,40,40,0,0,0-6.74-3.79,42.17,42.17,0,0,0-7.36-2.47,32.3,32.3,0,0,0-7.4-.9,38.35,38.35,0,0,0-11.8,1.71,29.15,29.15,0,0,0-7.34,3.5,1.23,1.23,0,0,1-1.28.07c-.93-.51-1.89-1-2.9-1.43-1.29-.55-2.4-1-3.33-1.39A42.81,42.81,0,0,0,50.64.7,44.93,44.93,0,0,0,42.72,0,41.58,41.58,0,0,0,31.34,1.54a43.13,43.13,0,0,0-10.2,4.33,42.6,42.6,0,0,0-8.64,6.71,43.57,43.57,0,0,0-6.68,8.67A43,43,0,0,0,1.51,54.16,41.62,41.62,0,0,0,5.82,64.34,43.51,43.51,0,0,0,21.11,79.63a41.51,41.51,0,0,0,10.21,4.31,42.34,42.34,0,0,0,11.35,1.51,46.2,46.2,0,0,0,6.93-.53,52.3,52.3,0,0,0,6.77-1.51A41.72,41.72,0,0,0,62.69,81c.58-.28,1.14-.57,1.7-.88a1.22,1.22,0,0,1,1.17,0c.75.42,1.51.82,2.29,1.18A39.73,39.73,0,0,0,76,84.14a40.26,40.26,0,0,0,20.82-.87,31.43,31.43,0,0,0,10-5.3,25.39,25.39,0,0,0,6.84-8.4,24,24,0,0,0,2.53-11A18.23,18.23,0,0,0,114,49.31Z"/><path class="cls-2" d="M87,37.28a9.61,9.61,0,0,0-12-2.42h0A23,23,0,0,1,68.66,37a22.25,22.25,0,0,1-2.68.32c-.48,0-1,0-1.43,0a23,23,0,0,1-11.24-2.94c-.37-.21-.74-.44-1.1-.67a9.6,9.6,0,1,0-4.4,18.12A9.79,9.79,0,0,0,51,51.38a20.38,20.38,0,0,1,2.41-1.25,22.72,22.72,0,0,1,8.38-2l1,0a22.8,22.8,0,0,1,7,1.11,22.29,22.29,0,0,1,4,1.74c.56.31,1.12.65,1.66,1A9.6,9.6,0,0,0,87,37.28Z"/><path class="cls-2" d="M244.24,26.71h12.43V55.93a16.4,16.4,0,0,1-1.49,7.23,13.62,13.62,0,0,1-4.13,5.06,18,18,0,0,1-6.35,3,34.85,34.85,0,0,1-16.33,0,18,18,0,0,1-6.35-3,13.72,13.72,0,0,1-4.13-5.06,16.4,16.4,0,0,1-1.48-7.23V26.71H229V54.63c0,2.85.59,4.87,1.76,6.08s3.13,1.81,5.85,1.81,4.67-.61,5.84-1.81,1.77-3.23,1.77-6.08Z"/><path class="cls-2" d="M269.65,71.05V45.63q0-9.56,5.85-14.79t16.23-5.24c1,0,1.85,0,2.6,0s1.4.08,2,.14,1.16.14,1.72.23,1.17.17,1.85.24v9.83c-1.11-.19-2.29-.34-3.52-.47s-2.35-.18-3.34-.18q-5,0-7.89,2.46c-1.91,1.64-2.87,4.06-2.87,7.28V71.05Z"/><path class="cls-2" d="M336.26,26.71h12.43V55.93a16.4,16.4,0,0,1-1.49,7.23,13.62,13.62,0,0,1-4.13,5.06,18,18,0,0,1-6.35,3,34.85,34.85,0,0,1-16.33,0,18,18,0,0,1-6.35-3,13.72,13.72,0,0,1-4.13-5.06,16.4,16.4,0,0,1-1.48-7.23V26.71H321V54.63c0,2.85.59,4.87,1.76,6.08s3.13,1.81,5.85,1.81,4.67-.61,5.84-1.81,1.77-3.23,1.77-6.08Z"/><path class="cls-1" d="M392.13,29.65a19.94,19.94,0,0,1-1.61-1.22,20.92,20.92,0,0,0-2.74-1.85,23.88,23.88,0,0,0-3.66-1.7,12.5,12.5,0,0,0-4.37-.75,15.17,15.17,0,0,0-4.75.66,9.79,9.79,0,0,0-3.29,1.77,6.84,6.84,0,0,0-2.52,5.26,4.51,4.51,0,0,0,1.3,3.29,11.5,11.5,0,0,0,3.42,2.31,34.74,34.74,0,0,0,4.85,1.76q2.7.8,5.52,1.66t5.52,2a20.78,20.78,0,0,1,4.85,2.69,12.92,12.92,0,0,1,3.42,3.85,10.58,10.58,0,0,1,1.3,5.42,14.51,14.51,0,0,1-1.52,6.66,15.54,15.54,0,0,1-4.16,5.1,19.35,19.35,0,0,1-6.21,3.27,25.16,25.16,0,0,1-13.06.55,25,25,0,0,1-5.14-1.79,24.18,24.18,0,0,1-4.6-2.85,22.33,22.33,0,0,1-3.81-3.84,1.74,1.74,0,0,1-.44-1.12,1.46,1.46,0,0,1,.62-1.05l2.76-2.31a1.59,1.59,0,0,1,1.15-.44,1.53,1.53,0,0,1,1,.62l.45.45a16,16,0,0,0,3.34,2.85,24.24,24.24,0,0,0,3.74,2A20.4,20.4,0,0,0,377.09,64a13.52,13.52,0,0,0,2.91.39,18.13,18.13,0,0,0,4.37-.56,14.16,14.16,0,0,0,4.09-1.71,10.09,10.09,0,0,0,3-2.92,7.28,7.28,0,0,0,1.19-4.15,5,5,0,0,0-1.17-3.37,10.16,10.16,0,0,0-3.17-2.41,28.24,28.24,0,0,0-4.66-1.86L378,45.7a54.87,54.87,0,0,1-7.2-2.57,20.83,20.83,0,0,1-4.95-3A10.13,10.13,0,0,1,363,36.52a10.8,10.8,0,0,1-.91-4.52A13.1,13.1,0,0,1,367,21.61a17.19,17.19,0,0,1,5.65-3,24,24,0,0,1,7.4-1.06,19.62,19.62,0,0,1,4.58.56,26.51,26.51,0,0,1,4.63,1.55,25.71,25.71,0,0,1,4.23,2.38,18,18,0,0,1,3.41,3.06,1.65,1.65,0,0,1,.51,1.1,1.47,1.47,0,0,1-.54,1.1l-2.49,2.38a1.53,1.53,0,0,1-1.13.49A1.61,1.61,0,0,1,392.13,29.65Z"/><path class="cls-1" d="M403.42,48.12a21.92,21.92,0,0,1,1.84-8.9,23.82,23.82,0,0,1,5-7.33,23.38,23.38,0,0,1,7.29-5,21.79,21.79,0,0,1,8.86-1.82,22.05,22.05,0,0,1,6,.82,22.8,22.8,0,0,1,5.48,2.34,23.81,23.81,0,0,1,8.28,8.29,23,23,0,0,1,2.34,5.49,22.84,22.84,0,0,1,0,12.13,22.73,22.73,0,0,1-2.34,5.47,23.84,23.84,0,0,1-8.28,8.26,23.16,23.16,0,0,1-5.48,2.32,22.62,22.62,0,0,1-12.07,0,23.08,23.08,0,0,1-5.47-2.32,23.34,23.34,0,0,1-4.66-3.61,22.6,22.6,0,0,1-3.6-4.65,23.16,23.16,0,0,1-2.35-5.47A21.79,21.79,0,0,1,403.42,48.12Zm7,0a16,16,0,0,0,1.26,6.29,16.8,16.8,0,0,0,3.43,5.21,16.41,16.41,0,0,0,5.07,3.56,14.69,14.69,0,0,0,6.22,1.33,14.5,14.5,0,0,0,6.17-1.33,16.52,16.52,0,0,0,5-3.56A16.87,16.87,0,0,0,441,54.41a16.5,16.5,0,0,0,0-12.55,17.41,17.41,0,0,0-3.39-5.3,16.45,16.45,0,0,0-5-3.65,14.24,14.24,0,0,0-6.17-1.37,14.43,14.43,0,0,0-6.22,1.37,16.34,16.34,0,0,0-5.07,3.65,17.33,17.33,0,0,0-3.43,5.3A16,16,0,0,0,410.38,48.12Z"/><path class="cls-1" d="M473,9.44a1.7,1.7,0,0,1,1.27.49,1.87,1.87,0,0,1,.48,1.37v3a2.06,2.06,0,0,1-.39,1.24,1.32,1.32,0,0,1-1.15.54,5.12,5.12,0,0,0-1.44.26,4.61,4.61,0,0,0-1.6.93A5.47,5.47,0,0,0,468.82,19a6.37,6.37,0,0,0-.54,2.81v7.31H473A1.59,1.59,0,0,1,474.72,31v2.2a2.17,2.17,0,0,1-.48,1.49,1.6,1.6,0,0,1-1.27.54h-4.69V68.39a1.71,1.71,0,0,1-.57,1.39,2,2,0,0,1-1.28.47h-3.25a1.52,1.52,0,0,1-1.28-.53,2.1,2.1,0,0,1-.4-1.33V35.21h-3.32a1.7,1.7,0,0,1-1.31-.54,2.09,2.09,0,0,1-.51-1.49V31a1.76,1.76,0,0,1,.51-1.43,2,2,0,0,1,1.31-.42h3.32V21.75a14.05,14.05,0,0,1,.79-4.75,11.69,11.69,0,0,1,2.25-3.92,10.69,10.69,0,0,1,3.6-2.66A11.48,11.48,0,0,1,473,9.44Z"/><path class="cls-1" d="M495.21,70.74a13.8,13.8,0,0,1-3.24-.39A7.79,7.79,0,0,1,489.05,69a7.06,7.06,0,0,1-2.11-2.63,9.5,9.5,0,0,1-.83-4.24V31.82h-4.05a2.59,2.59,0,0,1-1.3-.26c-.28-.18-.41-.57-.41-1.17V27.14c0-.61.13-1,.41-1.14a2.88,2.88,0,0,1,1.3-.23h4.05V18.32a1.23,1.23,0,0,1,.25-.85,1.82,1.82,0,0,1,.84-.44,5.35,5.35,0,0,1,.85-.16c.44-.05.88-.13,1.35-.22l1.82-.32a2.08,2.08,0,0,1,.94.07.94.94,0,0,1,.51.42,1.65,1.65,0,0,1,.19.65,6.52,6.52,0,0,1,0,.79v7.51h4.86a1.69,1.69,0,0,1,1.17.35,1.74,1.74,0,0,1,.37,1.26v2.76a1.89,1.89,0,0,1-.37,1.3,1.6,1.6,0,0,1-1.17.38H492.9V62.07a2.14,2.14,0,0,0,.59,1.71,2.52,2.52,0,0,0,1.65.49,1.84,1.84,0,0,1,1.32.49,1.78,1.78,0,0,1,.53,1.36V69a1.69,1.69,0,0,1-.49,1.28A1.81,1.81,0,0,1,495.21,70.74Z"/><path class="cls-3" d="M337.31,81.19h0A18.82,18.82,0,0,1,332.08,83a18.08,18.08,0,0,1-2.2.26,18.69,18.69,0,0,1-10.35-2.36c-.3-.18-.61-.36-.9-.55a7.85,7.85,0,1,0-1,14.38,17.52,17.52,0,0,1,2-1,18.64,18.64,0,0,1,6.85-1.61A18.88,18.88,0,0,1,333,93a18.67,18.67,0,0,1,3.29,1.42c.46.25.92.53,1.36.83a7.82,7.82,0,0,0,8.32-1,7.71,7.71,0,0,0,1.8-2.08,7.85,7.85,0,0,0-10.43-10.93Z"/><path class="cls-3" d="M360,93.66c-1.78,0-2.71-1-2.76-2.89a.16.16,0,0,1,.13-.18l1.37-.22a.14.14,0,0,1,.18.14c0,1.17.39,1.63,1.13,1.63s1-.38,1-1.58S360.85,89,360,88.65l-.66-.26c-1.53-.6-2-1.4-2-3.12,0-1.9.86-2.94,2.68-2.94s2.61,1,2.71,2.7c0,.09-.05.14-.15.18l-1.3.19c-.1,0-.18,0-.18-.13,0-.91-.32-1.41-1-1.41s-1,.42-1,1.33.19,1.33,1.07,1.67l.66.26c1.45.57,2,1.35,2,3.23C362.82,92.52,362.09,93.66,360,93.66Z"/><path class="cls-3" d="M369.57,92.05a2.51,2.51,0,0,1-4.69,0,7.94,7.94,0,0,1-.18-2.45,8,8,0,0,1,.18-2.45,2.52,2.52,0,0,1,4.69,0,8,8,0,0,1,.18,2.45A7.94,7.94,0,0,1,369.57,92.05ZM368,87.62a.84.84,0,0,0-1.57,0,7.76,7.76,0,0,0-.08,2,7.7,7.7,0,0,0,.08,2,.83.83,0,0,0,1.57,0,7.7,7.7,0,0,0,.08-2A7.76,7.76,0,0,0,368,87.62Z"/><path class="cls-3" d="M374.31,93.61c-1.72,0-2.32-.71-2.32-2.37v-8.6a.15.15,0,0,1,.16-.16h1.33a.16.16,0,0,1,.17.16v8.6c0,.52.21.77.63.85h.08a.18.18,0,0,1,.16.18v1.17a.15.15,0,0,1-.16.16Z"/><path class="cls-3" d="M380,93.51a.15.15,0,0,1-.16-.16v-.61h0a1.57,1.57,0,0,1-1.48.92c-1.15,0-1.8-.71-1.8-2.43V85.86a.16.16,0,0,1,.17-.17H378a.16.16,0,0,1,.16.17V91c0,.75.27,1.14.81,1.14s.83-.39.83-1.14V85.86a.16.16,0,0,1,.16-.17h1.33a.16.16,0,0,1,.16.17v7.49a.15.15,0,0,1-.16.16Z"/><path class="cls-3" d="M383.91,92.12a7.24,7.24,0,0,1-.2-2.52,7.12,7.12,0,0,1,.2-2.51,2.16,2.16,0,0,1,2.25-1.54,2.22,2.22,0,0,1,2.39,2.12c0,.12,0,.16-.13.18l-1.23.24A.15.15,0,0,1,387,88c-.08-.62-.37-.88-.83-.88a.68.68,0,0,0-.71.51,8.6,8.6,0,0,0-.08,2,8.66,8.66,0,0,0,.08,2,.69.69,0,0,0,.71.51c.46,0,.75-.26.83-.88,0-.12.08-.16.2-.15l1.23.25c.1,0,.13.06.13.18a2.22,2.22,0,0,1-2.39,2.12A2.16,2.16,0,0,1,383.91,92.12Z"/><path class="cls-3" d="M390.71,84.2a.15.15,0,0,1-.16-.16v-1.4a.15.15,0,0,1,.16-.16H392a.16.16,0,0,1,.17.16V84a.16.16,0,0,1-.17.16Zm0,9.31a.15.15,0,0,1-.16-.16V85.86a.16.16,0,0,1,.16-.17H392a.16.16,0,0,1,.17.17v7.49a.16.16,0,0,1-.17.16Z"/><path class="cls-3" d="M399.31,92.05a2.51,2.51,0,0,1-4.68,0,7.94,7.94,0,0,1-.18-2.45,8,8,0,0,1,.18-2.45,2.51,2.51,0,0,1,4.68,0,8,8,0,0,1,.18,2.45A7.94,7.94,0,0,1,399.31,92.05Zm-1.55-4.43a.78.78,0,0,0-.8-.55.77.77,0,0,0-.78.55,8.43,8.43,0,0,0-.08,2,8.36,8.36,0,0,0,.08,2,.84.84,0,0,0,1.58,0,8.36,8.36,0,0,0,.08-2A8.43,8.43,0,0,0,397.76,87.62Z"/><path class="cls-3" d="M405.22,93.51a.15.15,0,0,1-.16-.16V88.21c0-.76-.29-1.14-.84-1.14s-.83.38-.83,1.14v5.14a.15.15,0,0,1-.16.16H401.9a.15.15,0,0,1-.16-.16V85.86a.16.16,0,0,1,.16-.17h1.33a.16.16,0,0,1,.16.17v.61h0a1.58,1.58,0,0,1,1.49-.92c1.17,0,1.82.73,1.82,2.43v5.37a.16.16,0,0,1-.17.16Z"/><path class="cls-3" d="M409.07,92.1a8.72,8.72,0,0,1-.17-2.5,8.72,8.72,0,0,1,.17-2.5,2.53,2.53,0,0,1,4.66,0,9.91,9.91,0,0,1,.18,2.91.15.15,0,0,1-.16.16h-3.1c-.07,0-.1,0-.1.1a5.14,5.14,0,0,0,.08,1.35.74.74,0,0,0,.76.52.84.84,0,0,0,.87-.7.15.15,0,0,1,.19-.12l1.25.25c.1,0,.13.08.11.19a2.3,2.3,0,0,1-2.43,1.9A2.21,2.21,0,0,1,409.07,92.1Zm1.58-4.56a3.4,3.4,0,0,0-.1,1.2c0,.07,0,.1.1.1h1.51a.09.09,0,0,0,.1-.1,3.69,3.69,0,0,0-.1-1.2.75.75,0,0,0-.77-.52A.73.73,0,0,0,410.65,87.54Z"/><path class="cls-3" d="M415.7,91.66a.15.15,0,0,1,.13-.19l1.17-.23a.16.16,0,0,1,.19.13.93.93,0,0,0,1,.91.81.81,0,0,0,.84-.89c0-.49-.19-.78-.84-1l-.63-.25a2.34,2.34,0,0,1-1.69-2.29,2.21,2.21,0,0,1,2.32-2.28,2.09,2.09,0,0,1,2.25,1.78c0,.12,0,.2-.11.21l-1.1.21c-.1,0-.16,0-.2-.13a.84.84,0,0,0-.84-.71.74.74,0,0,0-.76.81c0,.36.19.68.84.93l.63.24a2.44,2.44,0,0,1-.73,4.77A2.19,2.19,0,0,1,415.7,91.66Z"/><path class="cls-3" d="M496.31,91.66a.15.15,0,0,1,.13-.19l1.16-.23a.17.17,0,0,1,.2.13.92.92,0,0,0,1,.91.81.81,0,0,0,.84-.89c0-.49-.19-.78-.84-1l-.64-.25a2.34,2.34,0,0,1-1.68-2.29,2.21,2.21,0,0,1,2.32-2.28A2.09,2.09,0,0,1,501,87.33c0,.12,0,.2-.11.21l-1.1.21a.16.16,0,0,1-.2-.13.84.84,0,0,0-.84-.71.75.75,0,0,0-.77.81c0,.36.2.68.85.93l.63.24a2.29,2.29,0,0,1,1.69,2.38,2.26,2.26,0,0,1-2.42,2.39A2.19,2.19,0,0,1,496.31,91.66Z"/><path class="cls-3" d="M427.91,93.51a.16.16,0,0,1-.17-.16v-9.2c0-.06,0-.1-.09-.1H426a.15.15,0,0,1-.16-.16V82.64a.15.15,0,0,1,.16-.16h5.31a.15.15,0,0,1,.16.16v1.25a.15.15,0,0,1-.16.16h-1.69a.09.09,0,0,0-.1.1v9.2a.15.15,0,0,1-.16.16Z"/><path class="cls-3" d="M432.27,92.1a8.72,8.72,0,0,1-.17-2.5,8.72,8.72,0,0,1,.17-2.5,2.53,2.53,0,0,1,4.66,0,9.91,9.91,0,0,1,.18,2.91.15.15,0,0,1-.16.16h-3.1c-.07,0-.1,0-.1.1a5.14,5.14,0,0,0,.08,1.35.75.75,0,0,0,.77.52.83.83,0,0,0,.86-.7.15.15,0,0,1,.19-.12l1.25.25c.1,0,.13.08.11.19a2.3,2.3,0,0,1-2.43,1.9A2.21,2.21,0,0,1,432.27,92.1Zm1.58-4.56a3.4,3.4,0,0,0-.1,1.2c0,.07,0,.1.1.1h1.51a.09.09,0,0,0,.1-.1,3.69,3.69,0,0,0-.1-1.2.81.81,0,0,0-1.51,0Z"/><path class="cls-3" d="M439.27,92.12a7.68,7.68,0,0,1-.19-2.52,7.55,7.55,0,0,1,.19-2.51,2.17,2.17,0,0,1,2.26-1.54,2.21,2.21,0,0,1,2.38,2.12c0,.12,0,.16-.13.18l-1.23.24a.14.14,0,0,1-.19-.14c-.09-.62-.38-.88-.83-.88a.69.69,0,0,0-.72.51,8.6,8.6,0,0,0-.08,2,8.66,8.66,0,0,0,.08,2,.7.7,0,0,0,.72.51c.45,0,.74-.26.83-.88,0-.12.08-.16.19-.15l1.23.25c.1,0,.13.06.13.18a2.21,2.21,0,0,1-2.38,2.12A2.17,2.17,0,0,1,439.27,92.12Z"/><path class="cls-3" d="M449.4,93.51a.15.15,0,0,1-.16-.16V88.21c0-.76-.29-1.14-.84-1.14s-.83.38-.83,1.14v5.14a.16.16,0,0,1-.17.16h-1.33a.15.15,0,0,1-.16-.16V85.86a.16.16,0,0,1,.16-.17h1.33a.16.16,0,0,1,.17.17v.61h0a1.61,1.61,0,0,1,1.5-.92c1.16,0,1.81.73,1.81,2.43v5.37a.15.15,0,0,1-.16.16Z"/><path class="cls-3" d="M457.94,92.05a2.51,2.51,0,0,1-4.69,0,7.94,7.94,0,0,1-.18-2.45,8,8,0,0,1,.18-2.45,2.52,2.52,0,0,1,4.69,0,8,8,0,0,1,.18,2.45A7.94,7.94,0,0,1,457.94,92.05Zm-1.56-4.43a.84.84,0,0,0-1.57,0,7.76,7.76,0,0,0-.08,2,7.7,7.7,0,0,0,.08,2,.83.83,0,0,0,1.57,0,7.7,7.7,0,0,0,.08-2A7.76,7.76,0,0,0,456.38,87.62Z"/><path class="cls-3" d="M462.68,93.61c-1.72,0-2.32-.71-2.32-2.37v-8.6a.15.15,0,0,1,.16-.16h1.33a.16.16,0,0,1,.17.16v8.6c0,.52.21.77.63.85h.08a.18.18,0,0,1,.16.18v1.17a.15.15,0,0,1-.16.16Z"/><path class="cls-3" d="M469.6,92.05a2.51,2.51,0,0,1-4.69,0,7.94,7.94,0,0,1-.18-2.45,8,8,0,0,1,.18-2.45,2.52,2.52,0,0,1,4.69,0,8.21,8.21,0,0,1,.17,2.45A8.12,8.12,0,0,1,469.6,92.05ZM468,87.62a.84.84,0,0,0-1.58,0,8.43,8.43,0,0,0-.08,2,8.36,8.36,0,0,0,.08,2,.78.78,0,0,0,.78.56.77.77,0,0,0,.8-.56,8.36,8.36,0,0,0,.08-2A8.43,8.43,0,0,0,468,87.62Zm-1.38-3.11c-.1,0-.15-.07-.1-.17l1.12-2a.27.27,0,0,1,.26-.17h1.32a.1.1,0,0,1,.08.17l-1.46,2a.31.31,0,0,1-.3.17Z"/><path class="cls-3" d="M472,95a.15.15,0,0,1,.06-.18l1.23-.44a.17.17,0,0,1,.22.08.88.88,0,0,0,.85.6.84.84,0,0,0,.87-1V92.48h0a1.41,1.41,0,0,1-1.45.94,1.64,1.64,0,0,1-1.7-1.3,8.52,8.52,0,0,1-.21-2.63,8.57,8.57,0,0,1,.21-2.63,1.64,1.64,0,0,1,1.7-1.31,1.41,1.41,0,0,1,1.45,1h0v-.66a.16.16,0,0,1,.16-.17h1.33a.16.16,0,0,1,.16.17v8.06a2.39,2.39,0,0,1-2.56,2.66A2.26,2.26,0,0,1,472,95Zm3.14-3.65a6.67,6.67,0,0,0,.09-1.87,6.79,6.79,0,0,0-.09-1.87.82.82,0,0,0-1.55,0,7.15,7.15,0,0,0-.08,1.87,7,7,0,0,0,.08,1.87.82.82,0,0,0,1.55,0Z"/><path class="cls-3" d="M479.49,84.2a.16.16,0,0,1-.17-.16v-1.4a.16.16,0,0,1,.17-.16h1.33a.15.15,0,0,1,.16.16V84a.15.15,0,0,1-.16.16Zm0,9.31a.16.16,0,0,1-.17-.16V85.86a.16.16,0,0,1,.17-.17h1.33a.16.16,0,0,1,.16.17v7.49a.15.15,0,0,1-.16.16Z"/><path class="cls-3" d="M483.42,92.12a7.24,7.24,0,0,1-.2-2.52,7.12,7.12,0,0,1,.2-2.51,2.15,2.15,0,0,1,2.25-1.54,2.22,2.22,0,0,1,2.39,2.12c0,.12,0,.16-.13.18l-1.24.24c-.11,0-.17,0-.19-.14-.08-.62-.37-.88-.83-.88a.67.67,0,0,0-.71.51,7.93,7.93,0,0,0-.08,2,8,8,0,0,0,.08,2,.68.68,0,0,0,.71.51c.46,0,.75-.26.83-.88a.15.15,0,0,1,.19-.15l1.24.25c.09,0,.13.06.13.18a2.22,2.22,0,0,1-2.39,2.12A2.15,2.15,0,0,1,483.42,92.12Z"/><path class="cls-3" d="M493.27,93.51a.15.15,0,0,1-.16-.16v-.61h0a1.44,1.44,0,0,1-1.44.92c-.9,0-1.87-.55-1.87-2.34a2.19,2.19,0,0,1,2.39-2.48H493a.09.09,0,0,0,.1-.1v-.45c0-.86-.25-1.25-1.07-1.25a2.2,2.2,0,0,0-1.3.45.15.15,0,0,1-.25-.06l-.42-1c-.05-.1,0-.16.05-.23a3.47,3.47,0,0,1,2.13-.69c1.77,0,2.45.78,2.45,2.67v5.13a.16.16,0,0,1-.17.16Zm-.16-2.32v-.92a.09.09,0,0,0-.1-.1h-.57a1,1,0,0,0-1.09,1.09c0,.66.26,1,.78,1A1,1,0,0,0,493.11,91.19Z"/><path class="cls-2" d="M202.94,31.72H183.89a2.15,2.15,0,0,0-2.15,2.15v6.55a2.15,2.15,0,0,0,2.15,2.15h9.59v13a13.09,13.09,0,0,1-1.88.94,20.44,20.44,0,0,1-2.58.87,28.48,28.48,0,0,1-3.09.64,21.71,21.71,0,0,1-3.34.25A21.21,21.21,0,0,1,174,56.54a22.09,22.09,0,0,1-7-4.8,22.9,22.9,0,0,1-4.76-7.13,22,22,0,0,1-1.76-8.76A23.12,23.12,0,0,1,166.73,20a21.55,21.55,0,0,1,16-6.77,23.48,23.48,0,0,1,7.36,1.19,25,25,0,0,1,6.49,3.2,2.37,2.37,0,0,0,.8.44,2.65,2.65,0,0,0,.66.11c.22,0,.52-.19.92-.57a18.38,18.38,0,0,0,1.32-1.44c.49-.58,1-1.23,1.51-1.94s1-1.41,1.4-2.08.75-1.28,1-1.81a3,3,0,0,0,.41-1.17,2.39,2.39,0,0,0-1-1.69,14.55,14.55,0,0,0-2.4-1.69,28.81,28.81,0,0,0-3-1.51c-1.05-.46-2-.84-2.72-1.14a35.53,35.53,0,0,0-6.24-1.72,37.13,37.13,0,0,0-6.47-.57,34.13,34.13,0,0,0-9.31,1.26A35.15,35.15,0,0,0,152.6,18.25a34.83,34.83,0,0,0,0,35.23,35.8,35.8,0,0,0,5.46,7A35.2,35.2,0,0,0,165.11,66a33.57,33.57,0,0,0,8.34,3.52,34.51,34.51,0,0,0,9.28,1.24,37.34,37.34,0,0,0,5.67-.44,41.84,41.84,0,0,0,5.53-1.23,34.55,34.55,0,0,0,5.17-2,31.77,31.77,0,0,0,4.62-2.7s0,0,0,0,0,0,.05,0a2.93,2.93,0,0,0,1-1,2.23,2.23,0,0,0,.27-1.06V33.87A2.15,2.15,0,0,0,202.94,31.72Z"/></g></g></svg>