<svg xmlns="http://www.w3.org/2000/svg" viewBox="0 0 116.27 85.45"><defs><style>.cls-1{fill:#2797d2;}.cls-2{fill:#24356b;}</style></defs><g id="Capa_2" data-name="Capa 2"><g id="Capa_1-2" data-name="Capa 1"><path class="cls-1" d="M114,49.31a21.7,21.7,0,0,0-5.73-6.44,33.73,33.73,0,0,0-7.8-4.33c-.76-.31-1.52-.6-2.3-.89a1.22,1.22,0,0,0-1.61,1.42,17.8,17.8,0,0,1-.89,11.44,1.24,1.24,0,0,0,.57,1.59l.25.13a13.42,13.42,0,0,1,4.12,3.11A5.5,5.5,0,0,1,101.89,59a8.71,8.71,0,0,1-1.42,5,13.06,13.06,0,0,1-3.94,3.78A19.67,19.67,0,0,1,91,70.17a25.44,25.44,0,0,1-6.07.77,18.47,18.47,0,0,1-3.9-.52,30.42,30.42,0,0,1-5-1.65,34.61,34.61,0,0,1-5.3-2.83l-.13-.09a1.19,1.19,0,0,1-.53-1V59.68a2.06,2.06,0,0,0-1.21-1.86,14.11,14.11,0,0,0-1.71-.67,14.79,14.79,0,0,0-4.53-.71h-.63A23.28,23.28,0,0,0,57,57.56a1.83,1.83,0,0,0-1.23,1.72v7a1.22,1.22,0,0,1-.62,1.06c-.48.26-1,.52-1.67.79a25.92,25.92,0,0,1-3.16,1.06,32.7,32.7,0,0,1-3.78.78,26.31,26.31,0,0,1-4.08.31A25.9,25.9,0,0,1,32,68.09a27.31,27.31,0,0,1-8.58-5.88,28.11,28.11,0,0,1-5.82-8.72,26.93,26.93,0,0,1-2.15-10.71A28.19,28.19,0,0,1,23.1,23.43a26.32,26.32,0,0,1,19.51-8.27,28.65,28.65,0,0,1,9,1.45,31.75,31.75,0,0,1,3.92,1.58,1.2,1.2,0,0,1,.67,1.32,23.84,23.84,0,0,0-.47,4.75c0,.55,0,1.08.06,1.61a1.88,1.88,0,0,0,.8,1.3l.57.33a14.7,14.7,0,0,0,7.23,1.9l.92,0h0a16.62,16.62,0,0,0,1.71-.21,12.4,12.4,0,0,0,2.78-.77,2,2,0,0,0,1.16-2c-.1-.85-.2-1.88-.2-2.43a8.14,8.14,0,0,1,.74-3.31,8.36,8.36,0,0,1,2.29-3,12.76,12.76,0,0,1,4.24-2.26,20.78,20.78,0,0,1,6.48-.89,16.58,16.58,0,0,1,5.84,1A33.14,33.14,0,0,1,95.56,18a30.22,30.22,0,0,1,3.86,2.61c1.08.87,1.88,1.48,2.44,1.86,5.72,5.72,15.46-4.45,10.07-10a29.6,29.6,0,0,0-5.51-4.94,40,40,0,0,0-6.74-3.79,42.17,42.17,0,0,0-7.36-2.47,32.3,32.3,0,0,0-7.4-.9,38.35,38.35,0,0,0-11.8,1.71,29.15,29.15,0,0,0-7.34,3.5,1.23,1.23,0,0,1-1.28.07c-.93-.51-1.89-1-2.9-1.43-1.29-.55-2.4-1-3.33-1.39A42.81,42.81,0,0,0,50.64.7,44.9,44.9,0,0,0,42.73,0,41.6,41.6,0,0,0,31.34,1.54a43.13,43.13,0,0,0-10.2,4.33,42.6,42.6,0,0,0-8.64,6.71,43.57,43.57,0,0,0-6.68,8.67A43,43,0,0,0,1.51,54.16,41.62,41.62,0,0,0,5.82,64.34,43.51,43.51,0,0,0,21.11,79.63a41.51,41.51,0,0,0,10.21,4.31,42.34,42.34,0,0,0,11.35,1.51,46.2,46.2,0,0,0,6.93-.53,52.3,52.3,0,0,0,6.77-1.51A41.72,41.72,0,0,0,62.69,81c.58-.28,1.14-.57,1.7-.88a1.22,1.22,0,0,1,1.17,0c.75.42,1.51.82,2.29,1.18A39.73,39.73,0,0,0,76,84.14a40.26,40.26,0,0,0,20.82-.87,31.43,31.43,0,0,0,10-5.3,25.39,25.39,0,0,0,6.84-8.4,24,24,0,0,0,2.53-11A18.23,18.23,0,0,0,114,49.31Z"/><path class="cls-2" d="M87,37.28a9.61,9.61,0,0,0-12-2.42h0A23,23,0,0,1,68.66,37a22.25,22.25,0,0,1-2.68.32c-.48,0-1,0-1.43,0a23,23,0,0,1-11.24-2.94c-.37-.21-.74-.44-1.1-.67a9.6,9.6,0,1,0-4.4,18.12A9.79,9.79,0,0,0,51,51.38a20.38,20.38,0,0,1,2.41-1.25,22.72,22.72,0,0,1,8.38-2l1,0a22.8,22.8,0,0,1,7,1.11,22.29,22.29,0,0,1,4,1.74c.56.31,1.12.65,1.66,1A9.6,9.6,0,0,0,87,37.28Z"/></g></g></svg>