<svg xmlns="http://www.w3.org/2000/svg" viewBox="0 0 161.97 142.33"><defs><style>.cls-1{fill:#cecdcc;}.cls-2{fill:#b5b4b4;}.cls-3{fill:#e9e9e9;}.cls-4{fill:#a8c635;}.cls-5{fill:#fff;}</style></defs><g id="Capa_2" data-name="Capa 2"><g id="Capa_1-2" data-name="Capa 1"><path class="cls-1" d="M6.83,71.88l9.86-8.15L42.54,123.8,6.08,79.65a5.52,5.52,0,0,1,.75-7.77"/><path class="cls-2" d="M.63,91.1l4.64-6.62L31.09,116.7,1.48,96A3.5,3.5,0,0,1,.63,91.1"/><path class="cls-3" d="M86.91,115.36A32.59,32.59,0,0,1,74,102.47,37.52,37.52,0,0,1,69.49,84a41,41,0,0,1,4.8-20.17A34.17,34.17,0,0,1,87,50.52c.79-.47,1.6-.88,2.41-1.28L83.14,33.79c-1.09-2.71-4.44-3.92-7.47-2.69L23.53,52.18c-3,1.23-4.6,4.42-3.5,7.13L21.91,64l26.28,65c1.1,2.71,4.45,3.92,7.48,2.69l35.45-14.33A34.44,34.44,0,0,1,86.91,115.36Z"/><path class="cls-4" d="M104.62,27.66A57.34,57.34,0,1,0,162,85,57.34,57.34,0,0,0,104.62,27.66Zm30.44,58.85a8.47,8.47,0,0,1-5.61,2H85.79a19.77,19.77,0,0,0,7.15,11.83,20.28,20.28,0,0,0,12.78,4.41,28.34,28.34,0,0,0,8.44-1,21.49,21.49,0,0,0,4.81-2.11c1.18-.74,2-1.25,2.43-1.51A10,10,0,0,1,125.88,99a6.47,6.47,0,0,1,4.74,2,6.84,6.84,0,0,1,1.33,1.82,6.25,6.25,0,0,1,1,3.38q0,3.61-3.74,6.55a32,32,0,0,1-10,5.2,41.3,41.3,0,0,1-32.26-2.53A32.59,32.59,0,0,1,74,102.47,37.52,37.52,0,0,1,69.49,84a41,41,0,0,1,4.8-20.17A34.17,34.17,0,0,1,87,50.52a32.82,32.82,0,0,1,16.83-4.6,31.26,31.26,0,0,1,16.63,4.8,36,36,0,0,1,12.48,13A34.76,34.76,0,0,1,137.6,81.3,6.86,6.86,0,0,1,135.06,86.51Z"/><path class="cls-4" d="M115,64.58a17.08,17.08,0,0,0-11.07-4q-15.28,0-18,14.37h34.52v-.92a13.59,13.59,0,0,0-5.4-9.49"/><path class="cls-4" d="M147.91,2.64c-8.84-2.58-32.19-7.58-35.08,10.53a12.51,12.51,0,0,0,5.41,12.38c15.26,10.17,27.44-10.37,31.55-18.61a3.06,3.06,0,0,0-1.88-4.3"/><path class="cls-5" d="M132.92,63.68a36,36,0,0,0-12.48-13,31.26,31.26,0,0,0-16.63-4.8A32.82,32.82,0,0,0,87,50.52,34.17,34.17,0,0,0,74.29,63.81,41,41,0,0,0,69.49,84,37.52,37.52,0,0,0,74,102.47a32.59,32.59,0,0,0,12.88,12.89,41.3,41.3,0,0,0,32.26,2.53,32,32,0,0,0,10-5.2q3.73-2.94,3.74-6.55a6.25,6.25,0,0,0-1-3.38,6.84,6.84,0,0,0-1.33-1.82,6.47,6.47,0,0,0-4.74-2,10,10,0,0,0-4.48,1.19c-.44.26-1.25.77-2.43,1.51a21.49,21.49,0,0,1-4.81,2.11,28.34,28.34,0,0,1-8.44,1,20.28,20.28,0,0,1-12.78-4.41,19.77,19.77,0,0,1-7.15-11.83h43.66a8.47,8.47,0,0,0,5.61-2,6.86,6.86,0,0,0,2.54-5.21A34.76,34.76,0,0,0,132.92,63.68ZM120.35,75H85.83q2.76-14.37,18-14.37a17.08,17.08,0,0,1,11.07,4,13.59,13.59,0,0,1,5.4,9.49Z"/></g></g></svg>